<svg width="450" height="466" viewBox="0 0 450 466" fill="none" xmlns="http://www.w3.org/2000/svg">
    <path d="M449.999 0H4a4 4 0 0 0-4 4v458a4 4 0 0 0 4 4h445.999V0z" fill="url(#a)"/>
    <path d="M449.999 0h-4.081l4.081 5.892V0z" fill="#fff" fill-opacity=".1"/>
    <path d="M445.918 0 450 5.892v86.076L431.378 0h14.54z" fill="#fff" fill-opacity=".075"/>
    <path d="M431.378 0 450 91.968v177.904L215.882 0h215.496z" fill="#fff" fill-opacity=".05"/>
    <path d="M215.882 0 450 269.872v30.798L164.135 0h51.747z" fill="#fff" fill-opacity=".025"/>
    <path d="M0 461.999a4 4 0 0 0 4 4h86.74L0 431.715v30.284z" fill="#000" fill-opacity=".1"/>
    <path d="M0 431.716 90.74 466h18.16L0 252.722v178.994z" fill="#000" fill-opacity=".075"/>
    <path d="M0 252.721 108.9 466h47.075L0 137.769v114.952z" fill="#000" fill-opacity=".05"/>
    <path d="m0 137.769 155.975 328.23h196.027L0 117.34v20.429z" fill="#000" fill-opacity=".025"/>
    <defs>
        <radialGradient id="a" cx="0" cy="0" r="1" gradientUnits="userSpaceOnUse" gradientTransform="matrix(241.415 0 0 642.855 .156 .416)">
            <stop stop-color="#d44343"/>
            <stop offset="1" stop-color="#d44343"/>
        </radialGradient>
    </defs>
</svg>
