<svg width="29" height="25" viewBox="0 0 29 25" fill="none" xmlns="http://www.w3.org/2000/svg">
<path d="M17.3703 0H29V8.29228C29 11.6311 28.6965 14.2583 28.0895 16.1741C27.5101 18.0898 26.4064 19.8276 24.7785 21.3875C23.1783 22.9201 21.1503 24.1242 18.6947 25L16.4184 20.197C18.7361 19.4308 20.3915 18.3634 21.3848 16.9951C22.4057 15.6267 22.9299 13.8068 22.9575 11.5353H17.3703V0ZM0.951897 0H12.5816V8.29228C12.5816 11.6311 12.2919 14.2583 11.7125 16.1741C11.1331 18.0898 10.0294 19.8276 8.40153 21.3875C6.80124 22.9201 4.75949 24.1242 2.27628 25L0 20.197C2.34525 19.4308 4.01452 18.3634 5.00781 16.9951C6.00109 15.6267 6.52532 13.8068 6.58051 11.5353H0.951897V0Z" fill="white"/>
</svg>
